<svg xmlns="http://www.w3.org/2000/svg" xmlns:xlink="http://www.w3.org/1999/xlink" width="430.825" height="333.166" viewBox="0 0 430.825 333.166">
  <defs>
    <filter id="Pfad_1" x="0" y="0.013" width="130.7" height="332.967" filterUnits="userSpaceOnUse">
      <feOffset dy="3" input="SourceAlpha"/>
      <feGaussianBlur stdDeviation="3" result="blur"/>
      <feFlood flood-opacity="0.161"/>
      <feComposite operator="in" in2="blur"/>
      <feComposite in="SourceGraphic"/>
    </filter>
    <filter id="Pfad_2" x="134.791" y="0.011" width="162.522" height="333.154" filterUnits="userSpaceOnUse">
      <feOffset dy="3" input="SourceAlpha"/>
      <feGaussianBlur stdDeviation="3" result="blur-2"/>
      <feFlood flood-opacity="0.161"/>
      <feComposite operator="in" in2="blur-2"/>
      <feComposite in="SourceGraphic"/>
    </filter>
    <filter id="Pfad_3" x="294.015" y="0" width="136.81" height="333.098" filterUnits="userSpaceOnUse">
      <feOffset dy="3" input="SourceAlpha"/>
      <feGaussianBlur stdDeviation="3" result="blur-3"/>
      <feFlood flood-opacity="0.161"/>
      <feComposite operator="in" in2="blur-3"/>
      <feComposite in="SourceGraphic"/>
    </filter>
  </defs>
  <g id="Komponente_1_1" data-name="Komponente 1 – 1" transform="translate(9.448 6.517)" opacity="0.6">
    <g transform="matrix(1, 0, 0, 1, -9.45, -6.52)" filter="url(#Pfad_1)">
      <path id="Pfad_1-2" data-name="Pfad 1" d="M27.71,671.454c20.507-41.6,20.308-69.78,16.3-88.386-4.291-19.921-12.317-25.7-11.657-44.29.982-27.689,20.153-30.966,26.229-63.029,4.753-25.079-5.762-29.481-2.186-59.622,3.963-33.4,20.741-60.565,25.5-58.77,3.37,1.271-2.216,15.956,1.457,37.476,5.459,31.988,23.672,33.966,31.329,62.177,8.895,32.775-12.144,43.164-3.643,77.508,7.961,32.164,28.828,32.806,28.415,57.918-.343,20.828-14.564,30.57-12.386,56.215a67.516,67.516,0,0,0,6.09,22.873" transform="translate(-18.26 -350.76)" fill="#fff" stroke="#161615" stroke-miterlimit="10" stroke-width="1" opacity="0.56"/>
    </g>
    <g transform="matrix(1, 0, 0, 1, -9.45, -6.52)" filter="url(#Pfad_2)">
      <path id="Pfad_2-2" data-name="Pfad 2" d="M0,314.252c23.727-18.259,31.433-35.109,33.55-47.616C40.5,225.561,5.374,191.33,14.967,169.311c7.793-17.888,22.475-13.259,31.332-32.971,11.6-25.811-10.512-40.574-6.441-77.5C43.54,25.433,65.959-1.662,71.731.08c4.212,1.271-2.769,15.953,1.821,37.471,6.98,32.723,33.829,35.7,39.159,62.167,5.324,26.434-19,31.854-16.326,59.617,3.587,37.289,48.96,43.072,47.288,75.789-.937,18.32-15.69,26.794-15.481,56.206a103.986,103.986,0,0,0,2.975,22.888" transform="translate(144.1 6.52)" fill="#fff" stroke="#161615" stroke-miterlimit="10" stroke-width="1" opacity="0.56"/>
    </g>
    <g transform="matrix(1, 0, 0, 1, -9.45, -6.52)" filter="url(#Pfad_3)">
      <path id="Pfad_3-2" data-name="Pfad 3" d="M404.813,671.709c27.505-55.169,28.041-78.335,23.04-88.708a144.071,144.071,0,0,1-10.838-33.945,47.263,47.263,0,0,1-.77-10.327c.91-35.632,32.806-43.321,34.1-78.863.794-21.843-11.033-25-9.438-48.93,2.054-30.831,23.723-56.251,29.752-53.236,4.526,2.262-3.191,18.83,1.451,44.272,5.51,30.2,20.536,29.613,26.118,55.024,7.846,35.724-17.9,54.853-6.53,84.6,6.883,18.007,17.081,13,22.491,30.65,8.11,26.458-12.03,46.771-3.627,76.309A62.187,62.187,0,0,0,522.8,671.709" transform="translate(-101.35 -350.94)" fill="#fff" stroke="#161615" stroke-miterlimit="10" stroke-width="1" opacity="0.56"/>
    </g>
  </g>
</svg>
