<svg id="Ebene_1" data-name="Ebene 1" xmlns="http://www.w3.org/2000/svg" xmlns:xlink="http://www.w3.org/1999/xlink" viewBox="0 0 131.64 333.7"><defs><style>.cls-1{filter:url(#Pfad_1);}.cls-2{fill:#fff;stroke:#161615;stroke-miterlimit:10;opacity:0.56;isolation:isolate;}</style><filter id="Pfad_1" x="0" y="0" width="130.7" height="332.97" name="Pfad_1"><feOffset dy="3"/><feGaussianBlur result="blur" stdDeviation="3"/><feFlood flood-opacity="0.16"/><feComposite operator="in" in="blur"/><feComposite in="SourceGraphic"/></filter></defs><g class="cls-1"><path id="Pfad_1-2" data-name="Pfad 1-2" class="cls-2" d="M0,332.89C24,288.82,23.75,259,19.06,239.24c-5-21.1-14.4-27.23-13.63-46.92C6.58,163,29,159.5,36.11,125.53,41.67,99,29.37,94.3,33.55,62.36,38.19,27,57.81-1.81,63.37.09,67.32,1.44,60.78,17,65.08,39.8c6.38,33.89,27.68,36,36.64,65.88,10.4,34.72-14.2,45.73-4.26,82.12,9.31,34.08,33.72,34.76,33.23,61.37-.4,22.07-17,32.39-14.48,59.56A66.34,66.34,0,0,0,123.33,333" transform="translate(0.44 0.5)"/></g></svg>