<svg id="Ebene_1" data-name="Ebene 1" xmlns="http://www.w3.org/2000/svg" xmlns:xlink="http://www.w3.org/1999/xlink" viewBox="0 0 163.31 334.06"><defs><style>.cls-1{filter:url(#Pfad_2);}.cls-2{fill:#fff;stroke:#161615;stroke-miterlimit:10;opacity:0.56;isolation:isolate;}</style><filter id="Pfad_2" x="0" y="0" width="162.52" height="333.15" name="Pfad_2"><feOffset dy="3"/><feGaussianBlur result="blur" stdDeviation="3"/><feFlood flood-opacity="0.16"/><feComposite operator="in" in="blur"/><feComposite in="SourceGraphic"/></filter></defs><g class="cls-1"><path id="Pfad_2-2" data-name="Pfad 2-2" class="cls-2" d="M0,333.15c26.83-19.35,35.55-37.22,37.94-50.48,7.86-43.54-31.86-79.83-21-103.18,8.81-19,25.41-14.05,35.43-35,13.11-27.36-11.89-43-7.29-82.16C49.24,27,74.59-1.76,81.12.08,85.88,1.43,78,17,83.18,39.81c7.89,34.69,38.25,37.85,44.28,65.91S106,139.49,109,168.92c4,39.53,55.36,45.66,53.47,80.35-1.06,19.42-17.74,28.4-17.51,59.58a103.87,103.87,0,0,0,3.37,24.27" transform="translate(0.29 0.5)"/></g></svg>