<svg id="Ebene_1" data-name="Ebene 1" xmlns="http://www.w3.org/2000/svg" xmlns:xlink="http://www.w3.org/1999/xlink" viewBox="0 0 137.62 333.94"><defs><style>.cls-1{filter:url(#Pfad_3);}.cls-2{fill:#fff;stroke:#161615;stroke-miterlimit:10;opacity:0.56;isolation:isolate;}</style><filter id="Pfad_3" x="0" y="0" width="136.81" height="333.1" name="Pfad_3"><feOffset dy="3"/><feGaussianBlur result="blur" stdDeviation="3"/><feFlood flood-opacity="0.16"/><feComposite operator="in" in="blur"/><feComposite in="SourceGraphic"/></filter></defs><g class="cls-1"><path id="Pfad_3-2" data-name="Pfad 3-2" class="cls-2" d="M0,333.1c31.89-58.48,32.51-83,26.72-94a143,143,0,0,1-12.57-36,45.27,45.27,0,0,1-.89-11c1.05-37.77,38-45.92,39.54-83.59C53.72,85.4,40,82.05,41.85,56.69,44.23,24,69.36-2.94,76.35.26c5.25,2.4-3.7,20,1.68,46.92,6.39,32,23.82,31.39,30.29,58.33,9.1,37.87-20.76,58.14-7.57,89.67,8,19.09,19.8,13.78,26.08,32.49,9.4,28-14,49.58-4.21,80.89a64.34,64.34,0,0,0,14.19,24.54" transform="translate(0.44 0.5)"/></g></svg>