<svg xmlns="http://www.w3.org/2000/svg" width="417.641" height="305.324" viewBox="0 0 417.641 305.324">
  <g id="g30869" transform="translate(3.616 1.965)" opacity="0.1">
    <path id="path27953" d="M410.89,78.25c12.31-13.92,38-14.28,56,10.76,16.61-3.39,34.59,15.87,34.45,32.47,15.85,11,20,26.58,15.41,45.61l-25,65.4c-4.57,17.43-16.14,28.54-32.09,35.68-3.31,18.49-33,31.76-52,15.93C501.28,216.64,469.78,139.4,410.89,78.25Z" transform="translate(-124.7 -67.56)" fill="#010101" stroke="#fff" stroke-miterlimit="15.7" stroke-width="3.93" fill-rule="evenodd"/>
    <g id="Gruppe_4" data-name="Gruppe 4" transform="translate(0)">
      <path id="path26009" d="M214.148,232.25c-9.5-11-20.144-16.5-30.527-23.22-14.173-10.42-9.416-23-24.565-31-12.016-6.29-33.406-1.26-46.275-13.05-20.5-18.78-36.482-15.62-37.245-5.24l1.927,27.32-1.927-27.29-35.793-11c0,7.38,4.1,14.76,7.718,22.14l28.953-.43-28.953.43H36.93c23.785,36.69,21.325,35.2,50.54,25.39L84.665,211c12.418-6.94,24.409-17.07,38.6-11,12.172,4.48,17.6,18.79,31.249,20.66,14.583,2,19.258,37,43.322,59.78C196.178,260.65,202.755,245.19,214.148,232.25Z" transform="translate(-36.93 -67.56)" fill="#010101" stroke="#fff" stroke-miterlimit="15.7" stroke-width="3.93" fill-rule="evenodd"/>
      <path id="path25038" d="M285.632,368c22.147-27.3,52.892-39.44,83.249-52.28a320.941,320.941,0,0,1-51.3-40.43c-.659-10.32-2.473-20.34-11.465-28.4,10.081-22.08,14.012-52,12.875-84.3-23.516-6.65-28.222-21.88-31.239-45.58,2.967,24,7.69,39,31.239,45.58,7.764,1.43,18.364,0,30.827-7.73l-24.142-22.39L303.09,107.74l22.584,24.73c98.909,24.26,100.681,150.32,55.381,208.41,23.837,7.68,38.13-7.93,46.018-39.14C440.5,294,447.365,280,442.057,254c10.377-19.88,9.7-37.83-6.19-53.13,5.935-21.8-5.077-44.4-20.606-45.59-1.3-16-9.891-39.76-28.214-38.71-3.3-18.68-16.592-35.29-35.813-31.84-17.622-22.73-37.816-22.17-60.12-2.59-21.216-3.22-42.778-15-63.121,3-20.754,1.86-63.261-18.45-65.115,5.15-6.841,1.19-6.05,19.41-4.228,27.3,33.637-6,48.935,2.92,57.491,19.57-36.209-25.06-73.77,7.32-101.382-42.76C106.1,104,100,125.86,125.877,139.56c29.277,12.07,35.162-8.89,90.279-2.4,3.041,10.05-36.613,18.14-52.752,11.84,13,44.65,39.836-3.95,87.914,29.88,16.7,9,34.569,1.71,38.129-12.88-3.618,15-21.529,22-38.08,12.89-31.494,56-56.988,54.8-54.623,110.8,19.576,21.79,26.953-4.45,38.632-11.84-11.778,7.41-19.2,33.47-38.632,11.84-5.2-4.42-8.9-6.72-17-14.66-5.77-5.63-21.109-43.09-45.07-10.06-24.035,22.64-53.411.94-61.505,27.73l9.149,19.14L73.183,292.7,37.37,313.13l16.394,10.12,24.142-20.86L53.764,323.25,43.7,331.84c28.577,15.61,34.89,11.26,51.886-11.59L103,332.95c5.86-20.88,18.051-32,37.569-40.68,19.254-8.55,39.094,25.34,55.381,43.86,24.208,27.53,44.6,13.17,58.694,1.29L267.68,323,254.6,337.42Z" transform="translate(-36.93 -67.56)" fill="#010101" stroke="#fff" stroke-miterlimit="15.7" stroke-width="3.93" fill-rule="evenodd"/>
    </g>
    <path id="path26980" d="M258.57,159.77c-.88,11.06-8.24,20.48-18.18,29.26,21.11.51,33.68-7.57,40-21.94" transform="translate(-75.766 -67.56)" fill="none" stroke="#010101" stroke-miterlimit="15.7" stroke-width="3.93"/>
    <path id="path26982" d="M261.15,97.61c7.7-2.91,12.44-4.27,19.24-3.65-.73,8.57,7,15.32,15,14.84-4.27-3.6-7.18-9.8-5.39-14.8,9.68,1.76,20.65,3.61,31.44,11C312.6,126.45,274.27,123.74,261.15,97.61Z" transform="translate(-81.704 -67.56)" fill="#fff" stroke="#010101" stroke-miterlimit="15.7" stroke-width="3.93" fill-rule="evenodd"/>
  </g>
</svg>
